<svg version="1.1" viewBox="0.0 0.0 960.0 960.0" fill="none" stroke="none" stroke-linecap="square" stroke-miterlimit="10" xmlns:xlink="http://www.w3.org/1999/xlink" xmlns="http://www.w3.org/2000/svg"><clipPath id="p.0"><path d="m0 0l960.0 0l0 960.0l-960.0 0l0 -960.0z" clip-rule="nonzero"/></clipPath><g clip-path="url(#p.0)"><path fill="#ffffff" d="m0 0l960.0 0l0 960.0l-960.0 0z" fill-rule="evenodd"/><path fill="#000000" fill-opacity="0.0" d="m0.007874016 389.5118l960.0 0l0 180.97635l-960.0 0z" fill-rule="evenodd"/><path fill="#000000" d="m95.818726 527.71497q-7.46875 0 -13.203125 -2.734375q-5.71875 -2.734375 -8.921875 -7.53125q-3.203125 -4.796875 -3.203125 -11.0625305q0 -10.0 7.53125 -15.53125q7.53125 -5.546875 20.734375 -5.546875q9.0625 0 17.0625 2.796875l0 -5.0625q0 -6.0 -3.734375 -9.0625q-3.734375 -3.0625 -10.921875 -3.0625q-4.40625 0 -9.484375 1.40625q-5.0625 1.390625 -11.71875 4.328125l-6.671875 -13.46875q8.265625 -3.734375 15.796875 -5.59375q7.53125 -1.875 15.140625 -1.875q14.0 0 21.796875 6.734375q7.796875 6.734375 7.796875 19.0l0 45.06253l-18.0 0l0 -4.9375q-4.265625 3.203125 -9.203125 4.671875q-4.921875 1.46875 -10.796875 1.46875zm-8.0 -21.734406q0 4.0 3.46875 6.3437805q3.46875 2.328125 9.203125 2.328125q4.53125 0 8.390625 -1.125q3.875 -1.140625 6.9375 -3.4219055l0 -10.125q-3.328125 -1.328125 -6.9375 -2.0q-3.59375 -0.671875 -7.71875 -0.671875q-6.265625 0 -9.8125 2.34375q-3.53125 2.328125 -3.53125 6.328125zm90.79402 21.59378q-11.59375 0 -17.53125 -5.265625q-5.921875 -5.265625 -5.921875 -15.3906555l0 -34.671875l-14.265625 0l0 -15.203125l14.265625 0l0 -17.734375l18.265625 -4.125l0 21.859375l19.859375 0l0 15.203125l-19.859375 0l0 30.9375q0 4.796875 2.125 6.859375q2.140625 2.0625305 7.46875 2.0625305q2.671875 0 4.859375 -0.32815552q2.203125 -0.328125 4.875 -1.265625l0 15.0625305q-2.796875 0.9375 -7.0 1.46875q-4.203125 0.53125 -7.140625 0.53125zm23.609283 -1.0625l0 -93.328156l18.265625 -4.0l0 33.59375q7.859375 -7.0625 19.46875 -7.0625q8.125 0 14.328125 3.53125q6.2031403 3.53125 9.656265 9.734375q3.46875 6.203125 3.46875 14.46875l0 43.06253l-18.26564 0l0 -40.40628q0 -6.796875 -3.875 -10.71875q-3.859375 -3.9375 -10.515625 -3.9375q-4.671875 0 -8.28125 1.796875q-3.59375 1.796875 -5.984375 5.140625l0 48.12503l-18.265625 0zm79.063614 0l0 -93.328156l18.265625 -3.0625l0 96.390656l-18.265625 0zm66.532104 1.328125q-10.40625 0 -18.875 -4.796875q-8.46875 -4.796875 -13.40625 -12.9219055q-4.921875 -8.140625 -4.921875 -18.28125q0 -10.125 4.734375 -18.25q4.734375 -8.140625 12.859375 -12.9375q8.140625 -4.796875 18.140625 -4.796875q10.0 0 17.734375 4.9375q7.734375 4.921875 12.1875 13.328125q4.46875 8.390625 4.46875 19.0625l0 4.796875l-51.453125 0q1.1875 4.125 3.921875 7.46875q2.734375 3.328125 6.796875 5.203125q4.078125 1.8594055 8.734375 1.8594055q4.671875 0 8.609375 -1.4687805q3.9375 -1.46875 6.734375 -4.125l12.0 10.9219055q-6.40625 5.203125 -13.140625 7.609375q-6.734375 2.390625 -15.125 2.390625zm-18.796875 -42.921906l33.71875 0q-0.921875 -4.140625 -3.390625 -7.265625q-2.46875 -3.140625 -5.875 -4.9375q-3.390625 -1.796875 -7.53125 -1.796875q-4.265625 0 -7.734375 1.734375q-3.46875 1.734375 -5.796875 4.875q-2.328125 3.125 -3.390625 7.390625zm93.84906 42.65628q-11.59375 0 -17.53125 -5.265625q-5.921875 -5.265625 -5.921875 -15.3906555l0 -34.671875l-14.265625 0l0 -15.203125l14.265625 0l0 -17.734375l18.265625 -4.125l0 21.859375l19.859375 0l0 15.203125l-19.859375 0l0 30.9375q0 4.796875 2.125 6.859375q2.140625 2.0625305 7.46875 2.0625305q2.671875 0 4.859375 -0.32815552q2.203125 -0.328125 4.875 -1.265625l0 15.0625305q-2.796875 0.9375 -7.0 1.46875q-4.203125 0.53125 -7.140625 0.53125zm244.40509 0.265625q-10.28125 0 -18.546875 -4.734375q-8.265625 -4.734375 -13.0625 -12.9219055q-4.796875 -8.203125 -4.796875 -18.34375q0 -10.265625 4.796875 -18.390625q4.796875 -8.140625 13.0625 -12.9375q8.265625 -4.796875 18.546875 -4.796875q8.265625 0 15.796875 3.203125q7.53125 3.203125 13.0 9.203125l-11.203125 11.859375q-3.875 -4.265625 -8.078125 -6.328125q-4.1875 -2.078125 -9.125 -2.078125q-5.328125 0 -9.53125 2.671875q-4.203125 2.671875 -6.671875 7.203125q-2.46875 4.53125 -2.46875 10.390625q0 5.609375 2.46875 10.21875q2.46875 4.59375 6.859375 7.1875q4.40625 2.59375 9.75 2.59375q4.65625 0 8.71875 -1.921875q4.078125 -1.9375 7.8125 -5.8125l10.921875 11.4687805q-5.328125 5.734375 -12.796875 9.0q-7.46875 3.265625 -15.453125 3.265625zm37.727478 -1.328125l0 -93.328156l18.265625 -3.0625l0 96.390656l-18.265625 0zm59.45392 1.328125q-8.0 0 -14.203125 -3.53125q-6.1875 -3.53125 -9.71875 -9.796875q-3.53125 -6.2656555 -3.53125 -14.4062805l0 -43.0625l18.265625 0l0 40.40625q0 6.65625 3.921875 10.65625q3.9375 4.0000305 10.609375 4.0000305q4.53125 0 8.1875 -1.7969055q3.671875 -1.796875 6.078125 -5.125l0 -48.140625l18.265625 0l0 69.46878l-18.265625 0l0 -5.59375q-8.0 6.921875 -19.609375 6.921875zm52.141724 -1.328125l0 -93.328156l18.265625 -3.0625l0 32.53125q8.265625 -6.53125 19.46875 -6.53125q9.859375 0 17.859375 4.796875q8.0 4.796875 12.734375 12.859375q4.734375 8.0625 4.734375 18.0625q0 10.0 -4.8125 18.078125q-4.796875 8.0625305 -12.9375 12.7969055q-8.125 4.734375 -18.125 4.734375q-5.1875 0 -10.125 -1.46875q-4.9375 -1.46875 -9.0625 -4.265625l0 4.796875l-18.0 0zm34.796875 -14.5312805q5.734375 0 10.328125 -2.65625q4.609375 -2.671875 7.265625 -7.203125q2.671875 -4.546875 2.671875 -10.28125q0 -5.734375 -2.671875 -10.328125q-2.65625 -4.59375 -7.265625 -7.1875q-4.59375 -2.609375 -10.328125 -2.609375q-5.0625 0 -9.265625 1.671875q-4.203125 1.65625 -7.265625 5.0l0 27.0625q2.9375 3.0625 7.265625 4.796875q4.328125 1.734375 9.265625 1.734375z" fill-rule="nonzero"/><path fill="#010000" fill-opacity="0.0" d="m893.52515 390.78372l0 0l0 176.39322l0 0l0 -176.39322z" fill-rule="nonzero"/><path fill="#000000" d="m452.3676 389.5118l165.88977 0l0 180.97635l-165.88977 0z" fill-rule="evenodd"/><path stroke="#000000" stroke-width="1.0" stroke-linejoin="round" stroke-linecap="butt" d="m452.3676 389.5118l165.88977 0l0 180.97635l-165.88977 0z" fill-rule="evenodd"/><path fill="#000000" d="m462.98193 400.0l144.66113 0l0 160.0l-144.66113 0l0 -160.0z" fill-rule="nonzero"/><path fill="#000000" fill-opacity="0.0" d="m462.98193 392.27188l144.66113 0l0 176.39322l-144.66113 0l0 -176.39322z" fill-rule="nonzero"/><path fill="#ffffff" d="m471.38818 528.0l0 -93.328125l19.328125 0l0 93.328125l-19.328125 0zm109.59338 4.53125l-6.265625 -7.734375q-4.8125 2.140625 -10.140625 3.40625q-5.328125 1.265625 -11.203125 1.265625q-10.390625 0 -19.328125 -3.65625q-8.9375 -3.671875 -15.671875 -10.265625q-6.7187195 -6.609375 -10.5312195 -15.34375q-3.796875 -8.734375 -3.796875 -18.875q0 -10.125 3.796875 -18.859375q3.8125 -8.734375 10.5312195 -15.328125q6.734375 -6.609375 15.671875 -10.265625q8.9375 -3.671875 19.328125 -3.671875q10.40625 0 19.40625 3.671875q9.0 3.65625 15.734375 10.265625q6.734375 6.59375 10.46875 15.328125q3.734375 8.734375 3.734375 18.859375q0 10.0 -3.8125 18.734375q-3.796875 8.734375 -10.328125 15.265625l9.328125 11.609375l-16.921875 5.59375zm-27.609375 -20.796875q2.671875 0 5.0 -0.46875q2.34375 -0.46875 4.46875 -1.390625l-10.0 -12.546875l16.796875 -5.59375l6.9375 8.53125q3.0625 -3.859375 4.734375 -8.65625q1.671875 -4.8125 1.671875 -10.28125q0 -6.53125 -2.265625 -12.0625q-2.265625 -5.53125 -6.265625 -9.59375q-4.0 -4.0625 -9.34375 -6.390625q-5.328125 -2.34375 -11.734375 -2.34375q-6.265625 0 -11.671875 2.34375q-5.390625 2.328125 -9.328125 6.390625q-3.921875 4.0625 -6.1875 9.59375q-2.265625 5.53125 -2.265625 12.0625q0 6.40625 2.265625 12.015625q2.265625 5.59375 6.1875 9.65625q3.9375 4.0625 9.328125 6.40625q5.40625 2.328125 11.671875 2.328125z" fill-rule="nonzero"/></g></svg>